<mxfile host="app.diagrams.net" modified="2022-07-09T22:58:27.122Z" agent="5.0 (Macintosh; Intel Mac OS X 10_15_7) AppleWebKit/537.36 (KHTML, like Gecko) Chrome/102.0.0.0 Safari/537.36" etag="IINFJGLNE6lFCLQ9WJu-" version="20.0.4" type="github">
  <diagram id="jJqFCaBXVRWzkiOJzLUA" name="Page-1">
    <mxGraphModel dx="2246" dy="1306" grid="1" gridSize="10" guides="1" tooltips="1" connect="1" arrows="1" fold="1" page="1" pageScale="1" pageWidth="850" pageHeight="1100" math="0" shadow="0">
      <root>
        <mxCell id="0" />
        <mxCell id="1" parent="0" />
        <mxCell id="Mi277FUsmbijiGBwdZm--33" style="edgeStyle=orthogonalEdgeStyle;rounded=0;orthogonalLoop=1;jettySize=auto;html=1;exitX=0.5;exitY=1;exitDx=0;exitDy=0;" edge="1" parent="1" source="Mi277FUsmbijiGBwdZm--2" target="Mi277FUsmbijiGBwdZm--26">
          <mxGeometry relative="1" as="geometry" />
        </mxCell>
        <mxCell id="Mi277FUsmbijiGBwdZm--2" value="~ 1000 unique Segments" style="rounded=1;whiteSpace=wrap;html=1;" vertex="1" parent="1">
          <mxGeometry x="367.5" y="200" width="120" height="60" as="geometry" />
        </mxCell>
        <mxCell id="Mi277FUsmbijiGBwdZm--32" style="edgeStyle=orthogonalEdgeStyle;rounded=0;orthogonalLoop=1;jettySize=auto;html=1;exitX=0.5;exitY=1;exitDx=0;exitDy=0;entryX=0.5;entryY=0;entryDx=0;entryDy=0;" edge="1" parent="1" source="Mi277FUsmbijiGBwdZm--9" target="Mi277FUsmbijiGBwdZm--2">
          <mxGeometry relative="1" as="geometry" />
        </mxCell>
        <mxCell id="Mi277FUsmbijiGBwdZm--9" value="Fractal &lt;br&gt;Segmentation" style="ellipse;whiteSpace=wrap;html=1;" vertex="1" parent="1">
          <mxGeometry x="360" y="100" width="135" height="60" as="geometry" />
        </mxCell>
        <mxCell id="Mi277FUsmbijiGBwdZm--34" style="edgeStyle=orthogonalEdgeStyle;rounded=0;orthogonalLoop=1;jettySize=auto;html=1;exitX=0.5;exitY=1;exitDx=0;exitDy=0;entryX=0.5;entryY=0;entryDx=0;entryDy=0;" edge="1" parent="1" source="Mi277FUsmbijiGBwdZm--26" target="Mi277FUsmbijiGBwdZm--28">
          <mxGeometry relative="1" as="geometry" />
        </mxCell>
        <mxCell id="Mi277FUsmbijiGBwdZm--26" value="Allows for &lt;br&gt;specific Solutions" style="ellipse;whiteSpace=wrap;html=1;" vertex="1" parent="1">
          <mxGeometry x="360" y="300" width="135" height="60" as="geometry" />
        </mxCell>
        <mxCell id="Mi277FUsmbijiGBwdZm--36" style="edgeStyle=orthogonalEdgeStyle;rounded=0;orthogonalLoop=1;jettySize=auto;html=1;exitX=0.5;exitY=1;exitDx=0;exitDy=0;entryX=0.5;entryY=0;entryDx=0;entryDy=0;" edge="1" parent="1" source="Mi277FUsmbijiGBwdZm--27" target="Mi277FUsmbijiGBwdZm--29">
          <mxGeometry relative="1" as="geometry" />
        </mxCell>
        <mxCell id="Mi277FUsmbijiGBwdZm--27" value="Readiness to Pay / Value pricing" style="ellipse;whiteSpace=wrap;html=1;" vertex="1" parent="1">
          <mxGeometry x="360" y="520" width="135" height="60" as="geometry" />
        </mxCell>
        <mxCell id="Mi277FUsmbijiGBwdZm--35" style="edgeStyle=orthogonalEdgeStyle;rounded=0;orthogonalLoop=1;jettySize=auto;html=1;exitX=0.5;exitY=1;exitDx=0;exitDy=0;entryX=0.5;entryY=0;entryDx=0;entryDy=0;" edge="1" parent="1" source="Mi277FUsmbijiGBwdZm--28" target="Mi277FUsmbijiGBwdZm--27">
          <mxGeometry relative="1" as="geometry" />
        </mxCell>
        <mxCell id="Mi277FUsmbijiGBwdZm--28" value="generates &lt;b&gt;21Bi US$&lt;/b&gt; in Efficiency Gain for Farmers" style="rounded=1;whiteSpace=wrap;html=1;" vertex="1" parent="1">
          <mxGeometry x="367.5" y="410" width="120" height="60" as="geometry" />
        </mxCell>
        <mxCell id="Mi277FUsmbijiGBwdZm--37" style="edgeStyle=orthogonalEdgeStyle;rounded=0;orthogonalLoop=1;jettySize=auto;html=1;exitX=0.5;exitY=1;exitDx=0;exitDy=0;" edge="1" parent="1" source="Mi277FUsmbijiGBwdZm--29" target="Mi277FUsmbijiGBwdZm--30">
          <mxGeometry relative="1" as="geometry" />
        </mxCell>
        <mxCell id="Mi277FUsmbijiGBwdZm--29" value="generates &lt;b&gt;3,8Bi US$&lt;/b&gt; in Profit for Consultant&amp;nbsp;" style="rounded=1;whiteSpace=wrap;html=1;" vertex="1" parent="1">
          <mxGeometry x="367.5" y="620" width="120" height="60" as="geometry" />
        </mxCell>
        <mxCell id="Mi277FUsmbijiGBwdZm--38" style="edgeStyle=orthogonalEdgeStyle;rounded=0;orthogonalLoop=1;jettySize=auto;html=1;exitX=0.5;exitY=1;exitDx=0;exitDy=0;" edge="1" parent="1" source="Mi277FUsmbijiGBwdZm--30" target="Mi277FUsmbijiGBwdZm--31">
          <mxGeometry relative="1" as="geometry" />
        </mxCell>
        <mxCell id="Mi277FUsmbijiGBwdZm--30" value="Share of Profit Model" style="ellipse;whiteSpace=wrap;html=1;" vertex="1" parent="1">
          <mxGeometry x="360" y="710" width="135" height="60" as="geometry" />
        </mxCell>
        <mxCell id="Mi277FUsmbijiGBwdZm--31" value="~400 Mi US$ TAM for ODAPES" style="rounded=1;whiteSpace=wrap;html=1;" vertex="1" parent="1">
          <mxGeometry x="367.5" y="810" width="120" height="60" as="geometry" />
        </mxCell>
      </root>
    </mxGraphModel>
  </diagram>
</mxfile>
